# This file uses centimeters as units for non-parametric coordinates.

mtllib demo.mtl
g default
v -2.154858 -1.866051 0.018439
v 6.154858 -1.866051 0.018439
v -2.154858 1.866051 0.018439
v 6.154858 1.866051 0.018439
v -2.154858 1.866051 0.002064
v 6.154858 1.866051 0.002064
v -2.154858 -1.866051 0.002064
v 6.154858 -1.866051 0.002064
vt 0.500000 0.999023
vt 0.250488 0.999023
vt 0.500000 0.749512
vt 0.250488 0.749512
vt 0.500000 0.500000
vt 0.250488 0.500000
vt 0.500000 0.250488
vt 0.250488 0.250488
vt 0.500000 0.000977
vt 0.250488 0.000977
vt 0.000977 0.999023
vt 0.000977 0.749512
vt 0.749512 0.999023
vt 0.749512 0.749512
vn 0.000000 0.000000 1.000000
vn 0.000000 0.000000 1.000000
vn 0.000000 0.000000 1.000000
vn 0.000000 0.000000 1.000000
vn 0.000000 1.000000 0.000000
vn 0.000000 1.000000 0.000000
vn 0.000000 1.000000 0.000000
vn 0.000000 1.000000 0.000000
vn 0.000000 0.000000 -1.000000
vn 0.000000 0.000000 -1.000000
vn 0.000000 0.000000 -1.000000
vn 0.000000 0.000000 -1.000000
vn 0.000000 -1.000000 0.000000
vn 0.000000 -1.000000 0.000000
vn 0.000000 -1.000000 0.000000
vn 0.000000 -1.000000 0.000000
vn 1.000000 0.000000 0.000000
vn 1.000000 0.000000 0.000000
vn 1.000000 0.000000 0.000000
vn 1.000000 0.000000 0.000000
vn -1.000000 0.000000 0.000000
vn -1.000000 0.000000 0.000000
vn -1.000000 0.000000 0.000000
vn -1.000000 0.000000 0.000000
s 1
g pCube10
usemtl lambert5SG
f 1/1/1 2/2/2 3/3/3
f 3/3/3 2/2/2 4/4/4
s 2
f 3/3/5 4/4/6 5/5/7
f 5/5/7 4/4/6 6/6/8
s 3
f 5/5/9 6/6/10 7/7/11
f 7/7/11 6/6/10 8/8/12
s 4
f 7/7/13 8/8/14 1/9/15
f 1/9/15 8/8/14 2/10/16
s 5
f 2/2/17 8/11/18 4/4/19
f 4/4/19 8/11/18 6/12/20
s 6
f 7/13/21 1/1/22 5/14/23
f 5/14/23 1/1/22 3/3/24
