# This file uses centimeters as units for non-parametric coordinates.

mtllib techtable.mtl
g default
v 3.798683 -0.133598 0.342441
v 4.065878 -0.133598 0.342441
v 3.798683 0.133598 0.342441
v 4.065878 0.133598 0.342441
v 3.520484 0.411796 -0.008684
v 4.344076 0.411796 -0.008684
v 3.520484 -0.411796 -0.008684
v 4.344076 -0.411796 -0.008684
v 3.798683 -0.133598 0.476627
v 4.065878 -0.133598 0.476627
v 4.065878 0.133598 0.476627
v 3.798683 0.133598 0.476627
v 4.468659 -0.133598 0.342441
v 4.468659 0.133598 0.342441
v 4.468659 0.133598 0.476627
v 4.468659 -0.133598 0.476627
v 3.395901 -0.133598 0.342441
v 3.395901 0.133598 0.342441
v 3.395901 -0.133598 0.476627
v 3.395901 0.133598 0.476627
v 3.798683 -0.443889 0.342441
v 4.065878 -0.443889 0.342441
v 4.065878 -0.443889 0.476627
v 3.798683 -0.443889 0.476627
v 4.468659 -0.443889 0.342441
v 4.468659 -0.443889 0.476627
v 3.395901 -0.443889 0.476627
v 3.395901 -0.443889 0.342441
v 3.798683 0.443889 0.342441
v 4.065878 0.443889 0.342441
v 3.798683 0.443889 0.476627
v 4.065878 0.443889 0.476627
v 4.468659 0.443889 0.476627
v 4.468659 0.443889 0.342441
v 3.395901 0.443889 0.342441
v 3.395901 0.443889 0.476627
vt 0.847899 0.861435
vt 0.965484 0.675733
vt 0.242784 0.946298
vt 0.542288 0.000977
vt 0.124449 0.855036
vt 0.211175 0.081470
vt 0.000977 0.637239
vt 0.671964 0.171374
vt 0.715690 0.527551
vt 0.899993 0.425889
vt 0.980486 0.347142
vt 0.854079 0.131035
vt 0.632798 0.989629
vt 0.382613 0.999023
vt 0.257480 0.324679
vt 0.257480 0.324679
vt 0.360348 0.362083
vt 0.193453 0.356727
vt 0.573319 0.356564
vt 0.502010 0.134786
vt 0.412698 0.273664
vt 0.449768 0.336394
vt 0.425872 0.686789
vt 0.583854 0.656744
vt 0.520013 0.594484
vt 0.415337 0.628104
vt 0.688382 0.684815
vt 0.720163 0.575433
vt 0.608049 0.636046
vt 0.608049 0.636046
vt 0.453740 0.267249
vt 0.362472 0.617644
vt 0.367740 0.537584
vt 0.402765 0.340554
vt 0.447412 0.231777
vt 0.476062 0.188844
vt 0.531353 0.403909
vt 0.498780 0.449464
vt 0.597029 0.619133
vt 0.636406 0.677038
vt 0.398731 0.604028
vt 0.326653 0.504829
vn -0.000000 0.000000 1.000000
vn 0.000000 0.000000 1.000000
vn 0.000000 0.000000 1.000000
vn -0.000000 0.000000 1.000000
vn 0.000000 0.783802 0.621010
vn 0.000000 0.783802 0.621010
vn 0.000000 0.783802 0.621010
vn 0.000000 0.783802 0.621010
vn 0.000000 0.000000 -1.000000
vn 0.000000 0.000000 -1.000000
vn 0.000000 0.000000 -1.000000
vn 0.000000 0.000000 -1.000000
vn 0.000000 -0.783802 0.621010
vn 0.000000 -0.783802 0.621010
vn 0.000000 -0.783802 0.621010
vn 0.000000 -0.783802 0.621010
vn 0.783803 0.000000 0.621010
vn 0.783803 0.000000 0.621010
vn 0.783802 0.000000 0.621010
vn 0.783803 0.000000 0.621010
vn -0.783802 0.000000 0.621011
vn -0.783802 0.000000 0.621011
vn -0.783802 0.000000 0.621011
vn -0.783802 0.000000 0.621011
vn 0.000000 -1.000000 0.000000
vn 0.000000 -1.000000 0.000000
vn 0.000000 -1.000000 0.000000
vn 0.000000 -1.000000 0.000000
vn 1.000000 0.000000 0.000000
vn 1.000000 0.000000 0.000000
vn 1.000000 0.000000 0.000000
vn 1.000000 0.000000 0.000000
vn 0.000000 1.000000 0.000000
vn 0.000000 1.000000 0.000000
vn 0.000000 1.000000 0.000000
vn 0.000000 1.000000 0.000000
vn -1.000000 0.000000 0.000000
vn -1.000000 0.000000 0.000000
vn -1.000000 0.000000 0.000000
vn -1.000000 0.000000 0.000000
vn -0.000000 0.000000 -1.000000
vn 0.000000 0.000000 -1.000000
vn 0.000000 0.000000 -1.000000
vn 0.000000 0.000000 -1.000000
vn 0.000000 1.000000 0.000000
vn 0.000000 1.000000 0.000000
vn 0.000000 0.000000 1.000000
vn 0.000000 0.000000 1.000000
vn 0.000000 -1.000000 0.000000
vn 0.000000 -1.000000 0.000000
vn -0.000000 0.000000 -1.000000
vn 0.000000 0.000000 -1.000000
vn 0.000000 0.000000 -1.000000
vn 0.000000 0.000000 -1.000000
vn 0.000000 -1.000000 0.000000
vn 0.000000 -1.000000 0.000000
vn 0.000000 0.000000 1.000000
vn 0.000000 0.000000 1.000000
vn 0.000000 1.000000 0.000000
vn 0.000000 1.000000 0.000000
vn -0.000000 0.000000 -1.000000
vn -0.000000 0.000000 -1.000000
vn -0.000000 0.000000 1.000000
vn -0.000000 0.000000 1.000000
vn 0.000000 0.000000 -1.000000
vn 1.000000 0.000000 0.000000
vn 1.000000 0.000000 0.000000
vn 0.000000 0.000000 1.000000
vn 0.000000 0.000000 1.000000
vn -1.000000 0.000000 0.000000
vn -1.000000 0.000000 0.000000
vn 0.000000 0.000000 -1.000000
vn -0.000000 0.000000 -1.000000
vn -0.000000 0.000000 -1.000000
vn -0.000000 0.000000 1.000000
vn -0.000000 0.000000 1.000000
vn 0.000000 0.000000 1.000000
vn 1.000000 0.000000 0.000000
vn 1.000000 0.000000 0.000000
vn 0.000000 0.000000 -1.000000
vn 0.000000 0.000000 -1.000000
vn -1.000000 0.000000 0.000000
vn -1.000000 0.000000 0.000000
vn 0.000000 0.000000 1.000000
s 1
g pCube11
usemtl blinn1SG
f 9/15/1 10/16/2 12/18/3
f 12/18/3 10/16/2 11/17/4
s 2
f 3/3/5 4/4/6 5/5/7
f 5/5/7 4/4/6 6/6/8
s 3
f 5/5/9 6/6/10 7/7/11
f 7/7/11 6/6/10 8/8/12
s 4
f 7/7/13 8/8/14 1/9/15
f 1/9/15 8/8/14 2/10/16
s 5
f 2/2/17 8/11/18 4/4/19
f 4/4/19 8/11/18 6/12/20
s 6
f 7/13/21 1/1/22 5/14/23
f 5/14/23 1/1/22 3/3/24
s 7
f 21/27/25 22/28/26 24/30/27
f 24/30/27 22/28/26 23/29/28
s 8
f 13/19/29 14/20/30 16/22/31
f 16/22/31 14/20/30 15/21/32
s 9
f 30/31/33 29/32/34 32/34/35
f 32/34/35 29/32/34 31/33/36
s 10
f 18/23/37 17/24/38 20/26/39
f 20/26/39 17/24/38 19/25/40
s 11
f 2/2/41 4/4/42 13/19/43
f 13/19/43 4/4/42 14/20/44
s 9
f 30/31/33 32/34/35 34/36/45
f 34/36/45 32/34/35 33/35/46
s 1
f 11/17/4 10/16/2 15/21/47
f 15/21/47 10/16/2 16/22/48
s 7
f 23/29/28 22/28/26 26/38/49
f 26/38/49 22/28/26 25/37/50
s 11
f 3/3/51 1/1/52 18/23/53
f 18/23/53 1/1/52 17/24/54
s 7
f 21/27/25 24/30/27 28/40/55
f 28/40/55 24/30/27 27/39/56
s 1
f 9/15/1 12/18/3 19/25/57
f 19/25/57 12/18/3 20/26/58
s 9
f 31/33/36 29/32/34 36/42/59
f 36/42/59 29/32/34 35/41/60
s 11
f 1/1/52 2/2/41 21/27/61
f 21/27/61 2/2/41 22/28/62
s 1
f 10/16/2 9/15/1 23/29/63
f 23/29/63 9/15/1 24/30/64
s 11
f 2/4/41 13/3/43 22/31/62
f 22/31/62 13/3/43 25/32/65
s 8
f 13/18/29 16/17/31 25/33/66
f 25/33/66 16/17/31 26/34/67
s 1
f 16/17/48 10/21/2 26/34/68
f 26/34/68 10/21/2 23/35/63
f 9/21/1 19/20/57 24/35/64
f 24/35/64 19/20/57 27/36/69
s 10
f 19/20/40 17/4/38 27/36/70
f 27/36/70 17/4/38 28/31/71
s 11
f 17/2/54 1/19/52 28/28/72
f 28/28/72 1/19/52 21/37/61
f 4/19/42 3/22/51 30/37/73
f 30/37/73 3/22/51 29/38/74
s 1
f 12/22/3 11/16/4 31/38/75
f 31/38/75 11/16/4 32/29/76
f 11/15/4 15/25/47 32/30/76
f 32/30/76 15/25/47 33/39/77
s 8
f 15/25/32 14/24/30 33/39/78
f 33/39/78 14/24/30 34/40/79
s 11
f 14/24/44 4/1/42 34/40/80
f 34/40/80 4/1/42 30/27/73
f 3/3/51 18/23/53 29/32/74
f 29/32/74 18/23/53 35/41/81
s 10
f 18/23/37 20/26/39 35/41/82
f 35/41/82 20/26/39 36/42/83
s 1
f 20/26/58 12/18/3 36/42/84
f 36/42/84 12/18/3 31/33/75
