# This file uses centimeters as units for non-parametric coordinates.

mtllib techwall5.mtl
g default
v 1.882385 2.000000 1.193435
v 2.117615 2.000000 1.193435
v 1.882385 2.000000 0.001041
v 2.117615 2.000000 0.001041
v 2.117615 0.462890 1.193435
v 1.882385 0.462890 1.193435
v 1.882385 0.462890 0.001041
v 2.117615 0.462890 0.001041
vt 0.375000 0.250000
vt 0.625000 0.250000
vt 0.625000 0.500000
vt 0.375000 0.500000
vt 0.375000 0.166667
vt 0.625000 0.166667
vt 0.125000 0.166667
vt 0.125000 0.250000
vt 0.625000 0.583333
vt 0.375000 0.583333
vt 0.875000 0.166667
vt 0.875000 0.250000
vt 0.000000 0.000000
vt 1.000000 0.000000
vt 1.000000 1.000000
vt 0.000000 1.000000
vn 0.000000 1.000000 0.000000
vn 0.000000 1.000000 0.000000
vn 0.000000 1.000000 0.000000
vn 0.000000 1.000000 0.000000
vn 0.000000 0.000000 1.000000
vn 0.000000 0.000000 1.000000
vn 0.000000 0.000000 1.000000
vn 0.000000 0.000000 1.000000
vn -1.000000 0.000000 0.000000
vn -1.000000 0.000000 0.000000
vn -1.000000 0.000000 0.000000
vn -1.000000 0.000000 0.000000
vn 0.000000 0.000000 -1.000000
vn 0.000000 0.000000 -1.000000
vn 0.000000 0.000000 -1.000000
vn 0.000000 0.000000 -1.000000
vn 1.000000 0.000000 0.000000
vn 1.000000 0.000000 0.000000
vn 1.000000 0.000000 0.000000
vn 1.000000 0.000000 0.000000
vn 0.000000 -1.000000 0.000000
vn 0.000000 -1.000000 0.000000
vn 0.000000 -1.000000 0.000000
vn 0.000000 -1.000000 0.000000
s 1
g polySurface2 pCube3 group1
usemtl lambert2SG
f 1/1/1 2/2/2 3/4/3
f 3/4/3 2/2/2 4/3/4
s 2
f 6/5/5 5/6/6 1/1/7
f 1/1/7 5/6/6 2/2/8
s 3
f 7/7/9 6/5/10 3/8/11
f 3/8/11 6/5/10 1/1/12
s 4
f 3/4/13 4/3/14 7/10/15
f 7/10/15 4/3/14 8/9/16
s 5
f 5/6/17 8/11/18 2/2/19
f 2/2/19 8/11/18 4/12/20
s 6
f 6/13/21 7/14/22 5/16/23
f 5/16/23 7/14/22 8/15/24
