# This file uses centimeters as units for non-parametric coordinates.

mtllib wall.mtl
g default
v 0.058095 -0.338145 0.458490
v 0.058095 -0.817255 0.458490
v 0.058095 -0.817255 -0.458489
v 0.058095 -0.338145 -0.458489
v 0.058095 0.140965 -0.458489
v 0.058095 0.620075 -0.458489
v 0.058095 0.620075 0.458490
v 0.058095 0.140965 0.458490
v -0.058094 -0.817255 -0.458489
v -0.058094 -0.817255 0.458490
v -0.058094 0.140965 -0.458489
v -0.058094 -0.338145 -0.458489
v -0.058094 -0.338145 0.458490
v -0.058094 0.140965 0.458490
v -0.058094 0.620075 -0.458489
v -0.058094 0.620075 0.458490
v -0.058094 0.620075 0.391889
v -0.058094 0.140965 0.391889
v -0.058094 -0.338145 0.391889
v -0.058094 -0.817255 0.391889
v 0.058095 1.449304 -0.458489
v 0.058095 1.449304 0.458490
v -0.058094 -1.449304 0.391889
v -0.058094 -1.449304 0.458490
v -0.058094 1.449304 0.458490
v -0.058094 1.449304 0.391889
v 0.058095 -1.449304 -0.458489
v -0.058094 -1.449304 -0.458489
v -0.058094 1.449304 -0.458489
v 0.058095 -1.449304 0.458490
vt 0.361831 0.694412
vt 0.206237 0.694412
vt 0.206237 0.396619
vt 0.361831 0.396619
vt 0.517424 0.396619
vt 0.673017 0.396619
vt 0.942313 0.396619
vt 0.942313 0.694412
vt 0.673017 0.694412
vt 0.517424 0.694412
vt 0.769332 0.317119
vt 0.975511 0.244295
vt 0.983575 0.262359
vt 0.777593 0.337689
vt 0.436843 0.329462
vt 0.603342 0.333610
vt 0.605742 0.355940
vt 0.435288 0.351886
vt 0.019175 0.257688
vt 0.275735 0.308859
vt 0.270209 0.330821
vt 0.013147 0.276630
vt 0.312529 0.696275
vt 0.312529 0.901536
vt 0.274796 0.901536
vt 0.356755 0.851868
vt 0.353508 0.696275
vt 0.353508 0.851868
vt 0.356755 0.696275
vt 0.557838 0.732945
vt 0.394488 0.696275
vt 0.394488 0.851868
vt 0.000977 0.708839
vt 0.269979 0.696275
vt 0.406628 0.769615
vt 0.002737 0.746531
vt 0.397735 0.732945
vt 0.548945 0.696275
vt 0.999023 0.296587
vt 0.803180 0.366663
vt 0.597650 0.394756
vt 0.440363 0.388165
vt 0.778749 0.376337
vt 0.619032 0.391167
vt 0.244904 0.362359
vt 0.000977 0.310085
vt 0.418714 0.389007
vt 0.267766 0.366262
vt 0.025758 0.000977
vt 0.304816 0.021356
vt 0.452213 0.043625
vt 0.595490 0.049915
vt 0.736673 0.037188
vt 0.920417 0.001905
vt 0.000977 0.694412
vt 0.000977 0.396619
vn 1.000000 0.000000 0.000000
vn 1.000000 0.000000 0.000000
vn 1.000000 0.000000 0.000000
vn 1.000000 0.000000 0.000000
vn 1.000000 0.000000 0.000000
vn 1.000000 0.000000 0.000000
vn 1.000000 0.000000 0.000000
vn 1.000000 0.000000 0.000000
vn 1.000000 0.000000 0.000000
vn 1.000000 0.000000 0.000000
vn -1.000000 0.000000 0.000000
vn -1.000000 0.000000 0.000000
vn -1.000000 0.000000 0.000000
vn -1.000000 0.000000 0.000000
vn -1.000000 0.000000 0.000000
vn -1.000000 0.000000 0.000000
vn -1.000000 0.000000 0.000000
vn -1.000000 0.000000 0.000000
vn -1.000000 0.000000 0.000000
vn -1.000000 0.000000 0.000000
vn -1.000000 0.000000 0.000000
vn -1.000000 0.000000 0.000000
vn 0.000000 -0.000000 -1.000000
vn 0.000000 -0.000000 -1.000000
vn 0.000000 -0.000000 -1.000000
vn 0.000000 -0.000000 -1.000000
vn -0.000000 -0.000000 -1.000000
vn 0.000000 -0.000000 -1.000000
vn 0.000000 -0.000000 -1.000000
vn 0.000000 -0.000000 -1.000000
vn -0.000000 -0.000000 -1.000000
vn -0.000000 -0.000000 -1.000000
vn -0.000000 -0.000000 -1.000000
vn -0.000000 -0.000000 -1.000000
vn 0.000000 0.000000 1.000000
vn 0.000000 0.000000 1.000000
vn 0.000000 0.000000 1.000000
vn 0.000000 0.000000 1.000000
vn 0.000000 0.000000 1.000000
vn 0.000000 0.000000 1.000000
vn 0.000000 0.000000 1.000000
vn 0.000000 0.000000 1.000000
vn 0.000000 0.000000 1.000000
vn 0.000000 0.000000 1.000000
vn 0.000000 0.000000 1.000000
vn 0.000000 0.000000 1.000000
vn -1.000000 0.000000 0.000000
vn -1.000000 0.000000 0.000000
vn -1.000000 0.000000 0.000000
vn -1.000000 0.000000 0.000000
vn -1.000000 0.000000 0.000000
vn -1.000000 0.000000 0.000000
vn 1.000000 0.000000 0.000000
vn 1.000000 0.000000 0.000000
s 1
g polySurface8 group4
usemtl lambert4SG
f 2/2/1 3/3/2 1/1/3
f 3/3/2 4/4/4 1/1/3
f 1/1/3 4/4/4 8/10/5
f 4/4/4 5/5/6 8/10/5
f 5/5/6 6/6/7 8/10/5
f 8/10/5 6/6/7 7/9/8
f 6/6/7 21/7/9 7/9/8
f 21/7/9 22/8/10 7/9/8
s 2
f 20/11/11 23/12/12 10/14/13
f 10/14/13 23/12/12 24/13/14
f 18/15/15 19/16/16 14/18/17
f 14/18/17 19/16/16 13/17/18
f 19/16/16 20/11/11 13/17/18
f 13/17/18 20/11/11 10/14/13
f 26/19/19 17/20/20 25/22/21
f 25/22/21 17/20/20 16/21/22
f 17/20/20 18/15/15 16/21/22
f 16/21/22 18/15/15 14/18/17
s 5
f 3/23/23 27/24/24 9/26/25
f 9/26/25 27/24/24 28/25/26
f 5/27/27 4/28/28 11/30/29
f 11/30/29 4/28/28 12/29/30
f 4/31/28 3/32/23 12/29/30
f 12/29/30 3/32/23 9/26/25
f 21/33/31 6/34/32 29/36/33
f 29/36/33 6/34/32 15/35/34
f 6/37/32 5/38/27 15/35/34
f 15/35/34 5/38/27 11/30/29
s 8
f 30/39/35 2/40/36 24/13/37
f 24/13/37 2/40/36 10/14/38
f 1/41/39 8/42/40 13/17/41
f 13/17/41 8/42/40 14/18/42
f 2/43/36 1/44/39 10/14/38
f 10/14/38 1/44/39 13/17/41
f 7/45/43 22/46/44 16/21/45
f 16/21/45 22/46/44 25/22/46
f 8/47/40 7/48/43 14/18/42
f 14/18/42 7/48/43 16/21/45
s 2
f 29/49/47 15/50/48 26/19/19
f 26/19/19 15/50/48 17/20/20
f 15/50/48 11/51/49 17/20/20
f 17/20/20 11/51/49 18/15/15
f 11/51/49 12/52/50 18/15/15
f 18/15/15 12/52/50 19/16/16
f 12/52/50 9/53/51 19/16/16
f 19/16/16 9/53/51 20/11/11
f 9/53/51 28/54/52 20/11/11
f 20/11/11 28/54/52 23/12/12
s 1
f 3/3/2 2/2/1 27/56/53
f 27/56/53 2/2/1 30/55/54
